<svg width="86" height="30" fill="none" xmlns="http://www.w3.org/2000/svg"><path d="M84.901 11.984a15.105 15.105 0 00-.866-2.82 15.356 15.356 0 00-1.37-2.55 14.955 14.955 0 00-1.821-2.222 14.895 14.895 0 00-2.207-1.834 14.392 14.392 0 00-2.532-1.38 14.522 14.522 0 00-2.8-.872A14.991 14.991 0 0070.308 0a14.851 14.851 0 00-5.798 1.178 15.16 15.16 0 00-2.532 1.38c-.304.201-.593.425-.881.649a19.21 19.21 0 00-.882-.65 14.39 14.39 0 00-2.532-1.379 14.522 14.522 0 00-2.799-.872 14.936 14.936 0 00-3-.306 14.851 14.851 0 00-5.798 1.178 15.24 15.24 0 00-2.532 1.38c-.318.216-.63.447-.933.686a14.392 14.392 0 00-3.458-2.066 14.522 14.522 0 00-2.799-.872A14.936 14.936 0 0033.365 0a14.851 14.851 0 00-5.798 1.178 15.24 15.24 0 00-2.532 1.38c-.318.216-.622.44-.918.678a16.227 16.227 0 00-.918-.678 14.388 14.388 0 00-2.533-1.38 14.519 14.519 0 00-2.799-.872A14.937 14.937 0 0014.868 0 14.85 14.85 0 009.07 1.178a15.18 15.18 0 00-2.532 1.38 14.897 14.897 0 00-2.206 1.834A17.9 17.9 0 002.54 6.614c-.54.806-1 1.663-1.37 2.55-.378.903-.674 1.85-.866 2.82A15.24 15.24 0 000 15.004c0 1.014.104 2.036.304 3.02.192.962.488 1.909.866 2.811.37.888.837 1.745 1.37 2.55a15.322 15.322 0 001.821 2.223 14.894 14.894 0 002.207 1.834c.8.545 1.644 1.007 2.532 1.38.896.38 1.837.678 2.8.872a14.94 14.94 0 002.998.306 14.85 14.85 0 005.798-1.178 15.182 15.182 0 002.532-1.38c.311-.216.622-.44.918-.678.297.238.608.462.919.678.8.545 1.643 1.007 2.532 1.38.896.38 1.836.678 2.792.872a14.88 14.88 0 002.999.306 14.854 14.854 0 005.798-1.178 15.186 15.186 0 002.532-1.38c.318-.216.63-.447.933-.686.303.239.614.47.933.686.8.545 1.643 1.007 2.532 1.38A14.887 14.887 0 0051.914 30a14.854 14.854 0 005.798-1.178 15.186 15.186 0 002.532-1.38c.304-.201.592-.425.881-.649a14.392 14.392 0 003.414 2.028c.896.381 1.836.68 2.791.873.978.202 1.992.306 3 .306a14.854 14.854 0 005.798-1.178 15.186 15.186 0 002.531-1.38 14.899 14.899 0 002.207-1.834 14.956 14.956 0 004.058-7.592c.2-.991.303-2.006.303-3.02a17.126 17.126 0 00-.326-3.012zM8.397 5.309a11.294 11.294 0 011.977-1.073c.703-.299 1.436-.53 2.177-.679a11.697 11.697 0 012.34-.239 11.53 11.53 0 014.517.917c.688.291 1.355.657 1.97 1.082.132.09.266.186.399.283-.267.328-.518.671-.748 1.022-.54.805-1 1.655-1.37 2.55-.377.903-.674 1.85-.866 2.82a15.25 15.25 0 00-.304 3.02c0 1.013.104 2.035.304 3.02.192.961.489 1.908.866 2.81.37.888.837 1.746 1.37 2.551.237.35.489.694.755 1.022-.133.097-.266.194-.407.29a11.323 11.323 0 01-4.147 1.76c-.762.157-1.554.239-2.34.239a11.53 11.53 0 01-4.517-.917 11.262 11.262 0 01-1.969-1.082 12.135 12.135 0 01-1.718-1.424 11.915 11.915 0 01-2.488-3.714 11.527 11.527 0 01-.673-2.192 11.942 11.942 0 01-.237-2.356 11.733 11.733 0 01.91-4.549c.29-.694.652-1.365 1.074-1.984.415-.619.896-1.2 1.414-1.73a10.553 10.553 0 011.71-1.447zm15.357 16.235a11.518 11.518 0 01-1.747-4.176 11.94 11.94 0 01-.237-2.357 11.734 11.734 0 01.91-4.549 11.14 11.14 0 011.074-1.983c.118-.18.252-.358.385-.537.133.179.26.358.385.537a11.528 11.528 0 011.747 4.176c.156.768.238 1.566.238 2.356 0 .79-.082 1.589-.237 2.357a11.73 11.73 0 01-.674 2.192 11.131 11.131 0 01-1.074 1.984 11.96 11.96 0 01-.385.537 7.01 7.01 0 01-.385-.537zm3.488 1.849c.54-.805 1-1.655 1.37-2.55.377-.903.673-1.85.866-2.82a15.25 15.25 0 000-6.04 15.112 15.112 0 00-.866-2.818 15.349 15.349 0 00-1.37-2.55c-.237-.351-.49-.694-.756-1.022.134-.097.267-.194.4-.284a11.327 11.327 0 014.147-1.76 11.697 11.697 0 012.34-.238 11.529 11.529 0 014.517.917 11.059 11.059 0 012.384 1.38 14.558 14.558 0 00-2.11 3.557 14.77 14.77 0 00-.867 2.819 15.25 15.25 0 00-.303 3.02c0 1.014.103 2.036.303 3.02.193.962.489 1.909.867 2.811.37.888.836 1.745 1.37 2.55.236.351.48.687.747 1.015a11.786 11.786 0 01-2.392 1.38 11.656 11.656 0 01-4.517.917c-.784 0-1.576-.082-2.34-.24a11.53 11.53 0 01-2.176-.678 11.277 11.277 0 01-1.97-1.081 4.952 4.952 0 01-.4-.29c.267-.322.519-.665.756-1.015zm15.024-1.85a11.533 11.533 0 01-1.748-4.176 11.94 11.94 0 01-.237-2.356 11.742 11.742 0 01.91-4.549 11.14 11.14 0 011.075-1.983c.118-.18.244-.35.37-.522a11.921 11.921 0 011.444 2.506c.296.708.526 1.446.674 2.192.155.768.236 1.566.236 2.356a11.737 11.737 0 01-.91 4.549 11.138 11.138 0 01-1.074 1.984c-.118.179-.244.35-.37.522-.126-.172-.252-.343-.37-.522zm3.465 1.85c.54-.805 1-1.655 1.37-2.55.377-.903.674-1.85.866-2.82.2-.99.304-2.005.304-3.02a15.105 15.105 0 00-1.17-5.839 15.356 15.356 0 00-1.37-2.55 14.44 14.44 0 00-.74-1.014 11.781 11.781 0 012.384-1.38 11.314 11.314 0 012.177-.678 11.696 11.696 0 012.34-.238 11.532 11.532 0 014.517.917c.688.29 1.355.656 1.97 1.081.118.082.236.164.347.246-.274.343-.533.694-.777 1.059-.54.805-1 1.655-1.37 2.55a14.8 14.8 0 00-.867 2.82 15.25 15.25 0 000 6.04c.193.961.49 1.908.867 2.81.37.888.837 1.746 1.37 2.551.244.366.503.716.785 1.059-.119.09-.237.171-.356.253a11.324 11.324 0 01-4.147 1.76c-.762.157-1.555.239-2.34.239a11.528 11.528 0 01-4.517-.917 11.264 11.264 0 01-2.384-1.38c.26-.313.504-.656.741-.999zm14.95-1.85a11.526 11.526 0 01-1.748-4.176 11.94 11.94 0 01-.236-2.356 11.734 11.734 0 01.91-4.549c.289-.693.652-1.364 1.074-1.983.133-.202.274-.395.422-.59a11.921 11.921 0 011.496 2.573c.296.709.526 1.447.674 2.193.155.768.236 1.566.236 2.356a11.722 11.722 0 01-.91 4.549 11.137 11.137 0 01-1.074 1.984 10.64 10.64 0 01-.422.589 10.64 10.64 0 01-.422-.59zm3.562 1.85c.54-.805 1-1.655 1.37-2.55.377-.903.673-1.85.866-2.82a15.25 15.25 0 000-6.04 15.12 15.12 0 00-.867-2.818 15.356 15.356 0 00-1.37-2.55 15.545 15.545 0 00-.777-1.06c.118-.081.237-.171.355-.253a11.328 11.328 0 014.147-1.76 11.697 11.697 0 012.34-.238 11.532 11.532 0 014.517.917 11.702 11.702 0 015.102 4.243 11.52 11.52 0 011.747 4.176c.156.768.237 1.566.237 2.356 0 .79-.081 1.589-.237 2.357a11.732 11.732 0 01-.674 2.192 11.137 11.137 0 01-1.073 1.984c-.415.619-.896 1.2-1.415 1.73a11.28 11.28 0 01-1.718 1.424 11.338 11.338 0 01-4.147 1.76c-.762.157-1.554.239-2.34.239a11.537 11.537 0 01-4.517-.917 11.277 11.277 0 01-1.968-1.082 11.144 11.144 0 01-.356-.253c.274-.321.533-.672.778-1.037z" fill="#fff"/></svg>