<svg width="245" height="226" fill="none" xmlns="http://www.w3.org/2000/svg"><g filter="url(#filter0_d_163_2160)"><path d="M65 45c0-13.807 11.193-25 25-25h65c13.807 0 25 11.193 25 25v30.471c0 13.808-11.193 25-25 25h-8.603a25 25 0 00-19.599 9.48l-4.156 5.248-4.021-5.138a25.002 25.002 0 00-19.686-9.59H90c-13.807 0-25-11.192-25-25V45z" fill="#000"/></g><path d="M154.793 58.067a11.51 11.51 0 00-.66-2.147 11.4 11.4 0 00-2.43-3.635 11.412 11.412 0 00-1.681-1.397 10.946 10.946 0 00-1.929-1.05 11.04 11.04 0 00-2.131-.665 11.369 11.369 0 00-6.7.665c-.671.284-1.319.642-1.928 1.05-.232.154-.452.324-.671.495a10.937 10.937 0 00-2.6-1.545 11.369 11.369 0 00-6.7-.665 11.306 11.306 0 00-4.77 2.238 10.946 10.946 0 00-2.634-1.573 11.369 11.369 0 00-6.699-.665 11.293 11.293 0 00-4.76 2.232 10.946 10.946 0 00-2.628-1.567 11.366 11.366 0 00-6.7-.665 11.301 11.301 0 00-4.06 1.715c-.603.41-1.167.88-1.68 1.398-.49.522-.959 1.09-1.365 1.692a11.296 11.296 0 00-1.043 1.942 11.253 11.253 0 00-.66 2.147 11.618 11.618 0 000 4.6c.147.733.372 1.454.66 2.141.282.676.637 1.33 1.043 1.943a11.45 11.45 0 003.067 3.089 10.96 10.96 0 001.93 1.05c.682.29 1.398.518 2.131.665a11.378 11.378 0 004.568 0 11.33 11.33 0 002.132-.664 11.56 11.56 0 001.928-1.05c.237-.166.474-.336.7-.518a10.98 10.98 0 002.627 1.567c.683.29 1.399.518 2.126.665a11.376 11.376 0 004.568 0 11.307 11.307 0 004.771-2.237c.231.181.468.357.711.522a10.98 10.98 0 001.928 1.05c.683.29 1.399.518 2.132.665a11.376 11.376 0 004.568 0 11.32 11.32 0 004.06-1.715c.231-.153.451-.324.671-.494a10.953 10.953 0 002.6 1.545c.682.29 1.398.517 2.126.664a11.376 11.376 0 004.568 0 11.32 11.32 0 004.06-1.715c.603-.409 1.167-.88 1.68-1.397a11.34 11.34 0 002.431-3.635c.288-.687.513-1.408.66-2.147.152-.755.231-1.527.231-2.3a13.075 13.075 0 00-.248-2.294zm-58.265-5.083a8.589 8.589 0 011.505-.818 8.625 8.625 0 011.658-.517 8.913 8.913 0 011.782-.181 8.77 8.77 0 013.44.699 8.25 8.25 0 011.5.823c.102.068.203.142.305.216a9.49 9.49 0 00-.57.778 11.1 11.1 0 00-1.043 1.942 11.325 11.325 0 00-.66 2.147 11.63 11.63 0 00-.231 2.3c0 .772.079 1.55.231 2.3.147.733.373 1.454.66 2.141.282.676.637 1.329 1.043 1.942.181.267.373.528.576.778-.102.074-.203.148-.311.222a8.602 8.602 0 01-3.158 1.34c-.58.12-1.184.182-1.782.182a8.77 8.77 0 01-3.44-.699 8.575 8.575 0 01-1.5-.823 9.24 9.24 0 01-1.308-1.085 9.072 9.072 0 01-1.895-2.828 8.777 8.777 0 01-.513-1.67 9.095 9.095 0 01-.18-1.794 8.933 8.933 0 01.694-3.464c.22-.53.496-1.04.817-1.512a9.284 9.284 0 011.077-1.317 8.036 8.036 0 011.303-1.102zm11.696 12.364a8.76 8.76 0 01-1.331-3.18 9.05 9.05 0 01-.181-1.795 9.053 9.053 0 01.694-3.465c.22-.528.496-1.039.818-1.51a8.65 8.65 0 01.293-.41 9.066 9.066 0 011.111 1.92c.225.54.4 1.102.513 1.67a9.13 9.13 0 01.18 1.795 8.945 8.945 0 01-.693 3.464 8.449 8.449 0 01-.818 1.51c-.09.137-.192.273-.293.41a5.148 5.148 0 01-.293-.41zm2.656 1.408a11.1 11.1 0 001.043-1.942c.288-.687.513-1.408.66-2.147.152-.755.231-1.528.231-2.3a11.51 11.51 0 00-.891-4.447 11.701 11.701 0 00-1.043-1.942 11.229 11.229 0 00-.575-.778 8.99 8.99 0 011.804-1.04 8.623 8.623 0 011.658-.516 8.905 8.905 0 011.782-.182 8.763 8.763 0 013.44.699 8.391 8.391 0 011.816 1.05 11.068 11.068 0 00-1.607 2.709 11.253 11.253 0 00-.66 2.147c-.152.75-.231 1.528-.231 2.3 0 .773.079 1.55.231 2.3.147.733.372 1.454.66 2.141.282.676.637 1.33 1.043 1.943.18.266.367.522.57.772a8.996 8.996 0 01-1.822 1.05 8.63 8.63 0 01-1.658.518 8.912 8.912 0 01-1.782.181 8.77 8.77 0 01-3.44-.699 8.602 8.602 0 01-1.804-1.044c.203-.245.394-.506.575-.773zm11.442-1.408a9.063 9.063 0 01-.818-1.51 8.832 8.832 0 01-.513-1.67 9.125 9.125 0 01-.18-1.795 8.947 8.947 0 01.693-3.464 8.41 8.41 0 01.818-1.511 9.67 9.67 0 01.282-.398 9.06 9.06 0 011.099 1.908c.226.54.401 1.102.514 1.67a9.13 9.13 0 01.18 1.795 8.948 8.948 0 01-.694 3.464 8.444 8.444 0 01-.817 1.51 9.67 9.67 0 01-.282.398 9.67 9.67 0 01-.282-.397zm2.639 1.408c.412-.613.761-1.26 1.043-1.942.288-.687.513-1.408.66-2.147.152-.755.231-1.528.231-2.3a11.51 11.51 0 00-.891-4.447 11.701 11.701 0 00-1.043-1.942 10.95 10.95 0 00-.564-.772c.102-.08.209-.154.316-.228a8.63 8.63 0 013.158-1.34 8.905 8.905 0 011.782-.182 8.763 8.763 0 013.44.699c.524.221 1.032.5 1.5.823.09.063.18.125.265.188-.209.261-.406.528-.592.806a11.077 11.077 0 00-1.043 1.943 11.181 11.181 0 00-.66 2.146c-.152.75-.231 1.528-.231 2.3 0 .773.079 1.55.231 2.3.146.733.372 1.454.66 2.142.282.675.637 1.329 1.043 1.942.186.278.383.545.598.806-.091.069-.181.131-.271.194a8.637 8.637 0 01-3.158 1.34 8.912 8.912 0 01-1.782.181 8.777 8.777 0 01-3.44-.698 8.61 8.61 0 01-1.5-.823c-.107-.074-.214-.148-.316-.228.197-.238.384-.5.564-.76zm11.386-1.408a8.76 8.76 0 01-1.331-3.18 9.05 9.05 0 01-.181-1.795 9.053 9.053 0 01.694-3.465c.22-.528.496-1.039.818-1.51.101-.154.208-.301.321-.449a9.06 9.06 0 011.139 1.96c.226.539.401 1.101.514 1.67.118.584.18 1.192.18 1.794a8.948 8.948 0 01-.694 3.464 8.508 8.508 0 01-.817 1.51 8.295 8.295 0 01-.322.45 7.761 7.761 0 01-.321-.45zm2.712 1.408c.412-.613.762-1.26 1.044-1.942a11.6 11.6 0 00.891-4.447 11.559 11.559 0 00-.891-4.447 11.706 11.706 0 00-1.044-1.942 11.669 11.669 0 00-.592-.806c.09-.063.181-.131.271-.194a8.63 8.63 0 013.158-1.34 8.905 8.905 0 011.782-.182 8.786 8.786 0 013.44.699 8.89 8.89 0 013.885 3.232 8.762 8.762 0 011.331 3.18 9.05 9.05 0 01.181 1.794 9.053 9.053 0 01-.694 3.465 8.449 8.449 0 01-.818 1.51 9.284 9.284 0 01-1.077 1.318 9.004 9.004 0 01-2.808 1.908 8.63 8.63 0 01-1.658.517 8.905 8.905 0 01-1.782.182 8.77 8.77 0 01-3.44-.699 8.573 8.573 0 01-1.5-.823c-.09-.063-.181-.125-.271-.193a8.38 8.38 0 00.592-.79z" fill="#fff"/><defs><filter id="filter0_d_163_2160" x="0" y="0" width="245" height="225.199" filterUnits="userSpaceOnUse" color-interpolation-filters="sRGB"><feFlood flood-opacity="0" result="BackgroundImageFix"/><feColorMatrix in="SourceAlpha" values="0 0 0 0 0 0 0 0 0 0 0 0 0 0 0 0 0 0 127 0" result="hardAlpha"/><feOffset dy="45"/><feGaussianBlur stdDeviation="32.5"/><feComposite in2="hardAlpha" operator="out"/><feColorMatrix values="0 0 0 0 0 0 0 0 0 0 0 0 0 0 0 0 0 0 0.25 0"/><feBlend in2="BackgroundImageFix" result="effect1_dropShadow_163_2160"/><feBlend in="SourceGraphic" in2="effect1_dropShadow_163_2160" result="shape"/></filter></defs></svg>