<svg width="482" height="483" fill="none" xmlns="http://www.w3.org/2000/svg"><path fill-rule="evenodd" clip-rule="evenodd" d="M248.104 12.293c-4.153 6.761-7.55 12.45-7.55 12.642 0 .192 1.303.474 2.894.626 2.699.258 3.007.099 4.554-2.356l1.658-2.632 6.158.363c8.811.52 8.944.569 10.203 3.778 1.068 2.725 1.227 2.83 4.3 2.83h3.19l-2.345-5.454c-4.795-11.15-9.08-20.943-9.273-21.193-.11-.143-1.558-.402-3.219-.578L255.654 0l-7.55 12.293zM214.04 1.318l-2.985.27.058 2.95c.031 1.622.426 7.383.878 12.802l.82 9.852 2.825.208 2.825.209-.268-5.31-.268-5.311h2.685c2.403 0 3.133.483 6.964 4.616l4.279 4.615 3.625-.217 3.625-.218-4.907-5.273c-2.936-3.155-4.551-5.392-4.022-5.569.487-.162 1.757-1.17 2.823-2.237 3.365-3.372 2.29-8.48-2.284-10.85-1.965-1.019-8.87-1.24-16.673-.537zm-24.592 3.675C183.166 6.44 177.857 7.794 177.65 8c-.207.207-.179 1.162.061 2.122l.438 1.746 4.619-.97c2.541-.534 4.688-.887 4.773-.783.084.102 1.156 4.765 2.381 10.36 1.226 5.597 2.359 10.306 2.518 10.465.659.661 5.271-.72 5.271-1.58 0-.512-.982-5.288-2.182-10.611-2.418-10.722-2.473-10.47 2.473-11.22 4.032-.611 4.794-1.232 4.239-3.451-.258-1.028-.672-1.835-.919-1.793-.248.041-5.591 1.26-11.874 2.707zm93.679-.144c-1.775 6.006-5.359 23.66-4.891 24.096 1.014.945 13.232 3.524 16.689 3.524 7.429 0 13.054-5.988 13.054-13.896 0-6.766-4.466-10.553-15.501-13.145-9.152-2.15-8.891-2.135-9.351-.579zm-55.64 1.09c.829.608 1.168 1.61 1.012 2.986-.28 2.463-2.143 3.493-7.343 4.063l-3.594.394-.423-3.577c-.232-1.967-.256-3.846-.051-4.178.591-.958 9.009-.705 10.399.312zm33.249 5.868l2.209 5.375-5.009-.466c-2.755-.257-5.134-.592-5.286-.745-.337-.338 4.952-9.506 5.495-9.525.211-.007 1.377 2.405 2.591 5.361zm33.531-1.544c4.964 1.496 7.391 4.118 7.391 7.982 0 4.427-1.82 7.842-4.857 9.114-2.142.897-3.202.918-7.285.146-2.628-.496-4.879-1.087-5.001-1.312-.203-.372 2.717-13.984 3.447-16.066.402-1.15 2.169-1.111 6.305.136zm21.152 14.134c-2.547 6.377-4.629 11.99-4.628 12.473.002.482 4.605 2.666 10.229 4.853l10.225 3.975.684-1.803c.377-.992.436-2.024.132-2.295-.305-.27-3.634-1.697-7.401-3.17-3.767-1.474-6.848-3.063-6.848-3.53 0-.469.467-1.971 1.037-3.34l1.038-2.487 6.107 2.402c3.359 1.32 6.318 2.402 6.576 2.402.257 0 .826-.786 1.262-1.746.927-2.038.987-1.994-6.714-4.9-2.898-1.094-5.092-2.336-5.092-2.882 0-.754 1.116-3.906 1.804-5.097.064-.11 3.476 1.13 7.584 2.756 4.108 1.625 7.601 2.822 7.763 2.66.161-.162.488-1.085.725-2.052.412-1.677.066-1.901-7.493-4.87-4.359-1.711-8.923-3.525-10.142-4.029l-2.217-.915-4.631 11.595zm39.473 18.546c-3.363 5.748-6.208 10.81-6.321 11.25-.114.441.798 1.45 2.027 2.244l2.233 1.442L359.6 46.51c3.722-6.252 6.668-11.44 6.545-11.53-2.008-1.472-3.841-2.51-4.417-2.5-.397.007-3.473 4.714-6.836 10.462zM104.866 41.82l-1.891 1.558 5.527 7.38c3.041 4.06 5.424 7.486 5.297 7.613-.127.127-5.175-1.073-11.218-2.669-6.043-1.594-11.527-2.714-12.185-2.488-.66.226-2.075 1.132-3.148 2.013L85.3 56.828l7.755 10.34c4.266 5.686 7.988 10.337 8.271 10.334.284-.002 1.386-.714 2.451-1.583l1.936-1.58-5.626-7.326c-3.095-4.03-5.512-7.442-5.372-7.582.14-.14 4.96 1.017 10.713 2.572 5.753 1.555 11.092 2.82 11.865 2.813.773-.008 2.453-.886 3.735-1.952l2.33-1.937-7.822-10.359c-4.304-5.697-8.039-10.347-8.301-10.333-.262.014-1.328.727-2.368 1.584zm269.36.678c-.783.87-4.365 5.516-7.96 10.322l-6.535 8.74 2.042 1.636c1.123.9 2.201 1.623 2.394 1.606.193-.016 2.88-3.392 5.97-7.5l5.619-7.469.202 12.254.202 12.253 2.838 2.02c1.592 1.134 3.098 1.752 3.43 1.408.325-.337 3.939-5.031 8.03-10.431l7.438-9.82-1.939-1.59c-1.067-.876-2.136-1.603-2.374-1.617-.238-.014-2.924 3.284-5.97 7.328l-5.536 7.354-.44-4.715c-.241-2.593-.478-8.08-.527-12.195l-.087-7.482-2.411-1.842c-1.327-1.014-2.535-1.843-2.687-1.843-.152 0-.917.713-1.699 1.583zM74.579 66.627l-1.977 1.742 8.965 9.319c4.931 5.125 9.155 9.402 9.386 9.505.23.103 1.257-.689 2.281-1.76l1.862-1.948-8.805-9.322c-4.843-5.128-9.015-9.314-9.27-9.301-.256.012-1.355.806-2.442 1.764zM53.286 90.355a822.22 822.22 0 01-6.69 8.69l-3.364 4.298 9.9 7.543c5.444 4.149 10.256 7.667 10.692 7.818.436.15 3.7-3.588 7.255-8.306 6.03-8.007 6.387-8.663 5.334-9.829-1.636-1.812-2.435-1.548-4.6 1.52-1.064 1.507-3.208 4.355-4.766 6.329l-2.831 3.589-2.434-1.945c-1.339-1.071-2.434-2.179-2.434-2.463 0-.285 1.748-2.783 3.883-5.553 3.687-4.779 3.823-5.1 2.7-6.343-.65-.72-1.421-1.31-1.715-1.31-.293 0-2.197 2.138-4.23 4.75-2.035 2.614-3.927 5.021-4.207 5.35-.558.66-4.859-2.234-4.859-3.269 0-.356 2.054-3.282 4.565-6.504 2.511-3.222 4.566-6.002 4.566-6.178 0-.175-.774-.828-1.72-1.45-1.702-1.116-1.758-1.08-5.045 3.263zm385.836 16.881c-1.062.801-.952 1.224 1.219 4.726 1.311 2.116 2.256 4.055 2.098 4.31-.156.254-4.393 2.91-9.415 5.902-9.671 5.761-9.507 5.543-6.856 9.098.956 1.281 1.393 1.103 9.922-4.046 4.907-2.964 9.194-5.388 9.527-5.388.332 0 1.617 1.663 2.855 3.694 1.239 2.032 2.341 3.796 2.45 3.919.34.385 3.145-1.585 3.145-2.209 0-1.257-12.171-20.885-12.952-20.885-.454 0-1.351.396-1.993.879zm-402 10.096c-1.215.6-2.853 1.781-3.641 2.623-1.179 1.26-9.25 14.862-9.25 15.588 0 .119 3.872 2.352 8.604 4.962 4.731 2.609 9.921 5.509 11.532 6.443l2.929 1.698 3.866-7.247c5.64-10.572 6.013-15.073 1.66-20.038-4.11-4.692-10.856-6.423-15.7-4.029zm8.68 5.985c3.15 1.529 5.119 4.261 5.117 7.106 0 2.148-3.934 10.415-4.956 10.415-1.328 0-14.709-7.764-14.709-8.535 0-1.394 3.662-6.948 5.732-8.693 2.562-2.16 4.812-2.234 8.816-.293zm400.209 17.485c-6.17 2.661-11.324 5.161-11.456 5.556-.131.394.26 1.683.869 2.863l1.106 2.145 3.94-1.746c2.167-.96 4.359-1.745 4.873-1.745.523 0 1.154 1.162 1.433 2.639.428 2.262.097 3.391-2.324 7.916l-2.823 5.278 1.274 2.991c.701 1.645 1.441 2.99 1.646 2.99.205 0 1.677-2.612 3.271-5.805 1.594-3.193 3.003-5.921 3.132-6.062.128-.14 1.081.413 2.119 1.232 2.628 2.07 6.671 1.977 9.21-.212 1.76-1.519 1.963-2.139 1.904-5.806-.05-3.146-.711-5.574-2.825-10.385-1.517-3.454-3.068-6.372-3.445-6.484-.378-.112-5.735 1.974-11.904 4.635zm12.177 5.759c1.693 4.084 1.884 6.275.655 7.506-1.225 1.228-3.689 1.035-4.936-.387-1.079-1.228-4.054-6.785-4.054-7.571 0-.4 5.524-3.113 6.404-3.145.238-.008 1.106 1.61 1.931 3.597zm-426.934 7.033c-7.532 1.076-14.086 1.972-14.564 1.99-.892.032-3.185 4.737-2.83 5.805.276.828 19.05 21.554 19.581 21.619.238.028.895-1.135 1.462-2.587.996-2.552.965-2.723-.95-5.193l-1.98-2.556 2.548-7.12c2.132-5.958 2.792-7.123 4.03-7.132 3.25-.021 4.56-.867 5.678-3.665.622-1.559 1.039-2.898.926-2.976-.113-.079-6.368.738-13.9 1.815zm.703 5.829c0 .591-3.061 8.526-3.482 9.029-.241.286-2.286-1.351-4.545-3.637l-4.106-4.158 3.08-.401a290.11 290.11 0 004.839-.665c2.797-.423 4.214-.48 4.214-.168zm413.228 12.836c.213.715.589 2.149.836 3.185.363 1.532.967 1.972 3.237 2.356 3.164.536 3.285.744 5.543 9.602l1.455 5.711-2.197 2.27c-1.926 1.991-2.137 2.587-1.717 4.834.264 1.408.727 2.715 1.029 2.902.303.188 5.355-3.992 11.227-9.286l10.677-9.627-.452-2.834c-.249-1.558-.574-2.955-.723-3.105-.148-.149-6.218-1.677-13.487-3.396-7.27-1.718-13.802-3.302-14.517-3.519-1.011-.307-1.213-.107-.911.907zm23.319 10.253c.176.176-1.648 1.988-4.055 4.026l-4.374 3.706-1.232-4.823c-.677-2.653-1.239-5.021-1.248-5.262-.017-.451 10.34 1.783 10.909 2.353zm-458.377 2.261c-.997.562-2.51 2.386-3.362 4.052-1.778 3.478-4.498 16.2-3.584 16.766.335.207 6.031 1.444 12.657 2.747 13.067 2.571 13.276 2.547 13.299-1.47.009-1.688-.348-1.954-3.536-2.639-1.95-.419-4.005-.762-4.565-.762-1.056 0-1.378-2.467-.59-4.522.235-.615 3.04-2.545 6.232-4.288 5.555-3.034 5.824-3.295 6.267-6.07.255-1.596.318-3.046.14-3.223-.177-.178-2.971 1.123-6.209 2.891l-5.886 3.215-.847-2.345c-.465-1.29-1.435-2.879-2.155-3.531-1.821-1.653-5.675-2.054-7.86-.821zm5.275 6.429c1.168 1.171 1.375 3.838.642 8.283l-.446 2.703-3.234-.474c-1.778-.26-3.482-.714-3.787-1.006-.838-.805.195-6.005 1.678-8.448 1.444-2.379 3.422-2.785 5.147-1.058zm450.43 15.654l-11.765 1.074.006 2.166c.016 5.964 1.55 14.947 3.003 17.583 5.418 9.834 20.814 8.268 23.684-2.41.502-1.868.657-4.918.391-7.698-1.088-11.37-1.215-11.997-2.407-11.891-.631.056-6.442.586-12.912 1.176zm11.027 9.541c.853 7.987-2.103 11.699-9.317 11.699-5.79 0-7.871-2.587-8.864-11.022l-.429-3.632 5.459-.455c3.003-.25 5.934-.558 6.513-.684.58-.126 2.202-.265 3.606-.31l2.552-.082.48 4.486zM.636 226.691L0 239.36l2.283-.002 2.282-.001v-9.309l11.238.512 11.237.513v-5.584l-5.373-.455c-2.956-.25-7.143-.459-9.306-.465-7.116-.017-7.282-.154-6.968-5.721l.271-4.825H1.272l-.636 12.668zm455.279 19.805c-.213 2.46-.555 7.395-.758 10.97-.37 6.496-.37 6.497 1.41 6.945.979.246 1.96.267 2.181.046.221-.221.567-3.911.77-8.198.203-4.288.641-7.964.973-8.17.332-.206 1.946-.173 3.587.074l2.983.447-.242 6.984-.241 6.985h4.346l.01-5.454c.014-8.137.28-8.736 3.768-8.48l2.894.211-.263 8.269-.262 8.268h4.229l.513-10.614c.283-5.855.24-10.87-.096-11.185-.335-.314-6.191-.796-13.012-1.07l-12.403-.498-.387 4.47zm-4.882 39.721c-.239 1.472-.365 2.745-.28 2.83.403.401 25.101 5.418 25.364 5.152.165-.169.512-1.442.771-2.83l.471-2.525-10.417-2.242c-16.549-3.563-15.4-3.535-15.909-.385zM21.295 299.794c-6.444 2.173-11.927 4.167-12.186 4.432-.258.264-.102 1.596.347 2.959l.816 2.478 8.885-3.103c4.886-1.707 8.965-3.021 9.064-2.922.099.099-2.83 4.699-6.51 10.22l-6.69 10.041 1.127 3.404 1.129 3.403 12.571-4.206 12.572-4.205-.687-1.886a300.249 300.249 0 01-.98-2.727c-.205-.587-2.86.021-8.8 2.012-4.68 1.567-8.67 2.686-8.871 2.486-.2-.201 2.535-4.706 6.079-10.011l6.444-9.646-.867-3.102c-.477-1.705-1.06-3.208-1.297-3.34-.237-.132-5.703 1.539-12.146 3.713zm427.12-.872c-.453 1.376-.551 2.739-.218 3.048.332.307 4.304 1.768 8.829 3.246 4.523 1.478 8.057 2.857 7.85 3.063-.205.206-5.32 2.12-11.366 4.254l-10.991 3.878-1.208 3.266-1.209 3.267 12.375 4.314c6.807 2.373 12.629 4.06 12.94 3.749.31-.311.76-1.548 1-2.749l.435-2.183-8.951-2.988c-5.594-1.868-8.584-3.184-7.973-3.511.538-.288 5.767-2.179 11.619-4.202l10.639-3.68.871-3.115c.478-1.713.733-3.253.565-3.421-.168-.168-5.723-2.2-12.346-4.515l-12.041-4.21-.82 2.489zM33.733 335.454c-6.17 2.921-11.319 5.414-11.443 5.538-.125.125.304 1.34.951 2.701l1.178 2.474 5.876-2.738 11.829-5.515 5.952-2.774-.966-2.304c-.532-1.268-1.236-2.392-1.563-2.5-.328-.107-5.645 2.195-11.814 5.118zm21.178 17.76c-1.07 1.185-.855 1.698 3.367 8.023l4.51 6.757-2.758 1.829c-1.517 1.005-2.897 1.829-3.066 1.829-.17 0-2.081-2.536-4.248-5.634-3.917-5.601-3.95-5.627-5.648-4.512l-1.708 1.122 3.81 5.7c4.026 6.027 4.043 6.322.485 8.415l-2.075 1.22-4.38-6.655c-3.777-5.739-4.558-6.562-5.666-5.967-.706.379-1.478 1.001-1.713 1.383-.377.611 11.21 18.298 11.986 18.298.332 0 19.904-13.228 20.98-14.179.636-.562-11.268-18.895-12.268-18.895-.255 0-.979.57-1.608 1.266zm349.647 27.58l-1.956 2.044 2.352 1.972c7.642 6.408 13.676 11.744 13.879 12.272.129.335-1.06 2.082-2.643 3.884-2.719 3.095-2.813 3.347-1.706 4.573 1.407 1.557 2.291 1.636 3.335.298.429-.548 3.909-4.688 7.734-9.198l6.954-8.198-1.515-1.518-1.514-1.517-3.213 3.681-3.213 3.68-6.33-5.456c-3.481-3-7.202-6.154-8.269-7.009l-1.939-1.553-1.956 2.045zm-337.835 1.879c-3.345 1.766-5.354 3.875-6.832 7.171-2.462 5.486-.664 10.054 7.325 18.615l5.126 5.493 9.664-8.898 9.665-8.898-4.749-5.332c-6.241-7.009-9.872-9.33-14.542-9.292-1.953.015-4.498.529-5.657 1.141zm14.153 8.084l3.77 3.731-6.152 5.788c-3.384 3.183-6.52 5.804-6.97 5.823-1.494.063-6.508-6.376-6.996-8.985-.984-5.253 4.564-11.14 9.844-10.447 2.11.277 3.594 1.21 6.504 4.09zm309.805 4.918c-1.063.785-1.932 1.761-1.932 2.17 0 .408 1.285 2.139 2.857 3.846 3.126 3.399 3.187 4.061.549 6.034-1.772 1.326-4.301 1.211-12.33-.558-1.063-.235-2.352.364-4.109 1.91-3.035 2.67-2.955 2.726 5.814 4.075 5.24.805 5.712 1.006 5.092 2.166-1.394 2.61-.798 6.289 1.371 8.462 3.787 3.795 8.142 2.472 16.559-5.033 2.704-2.411 5.006-4.604 5.114-4.872.168-.414-10.879-13.255-15.557-18.083l-1.497-1.544-1.931 1.427zM92.805 408.782a8883.425 8883.425 0 01-2.811 14.749l-.977 5.083 2.377 1.817 2.378 1.817 13.165-5.765c7.24-3.17 13.322-5.91 13.516-6.089.193-.179-.724-1.227-2.037-2.331-2.246-1.886-2.505-1.945-4.355-.986-1.082.56-2.501 1.019-3.153 1.019-.925 0-7.194-4.512-11.73-8.443-.306-.265-.26-1.798.1-3.408.64-2.848.586-2.984-1.99-5.028l-2.648-2.101-1.835 9.666zm307.702 2.939l2.277 2.747-3.253 2.87c-4.54 4.003-8.675 3.782-8.675-.464 0-1.487 5.644-7.948 6.913-7.914.254.007 1.487 1.249 2.738 2.761zm-30.721 2.505c-2.235 1.437-2.459 1.88-2.459 4.876v3.296l-6.075 3.881-6.074 3.88-2.775-1.418-2.775-1.418-2.618 1.782c-1.44.98-2.514 1.873-2.388 1.985.259.227 21.896 12.405 24.174 13.606 1.195.629 1.923.465 3.907-.886l2.439-1.66-1.253-13.259c-.689-7.291-1.342-13.93-1.449-14.752l-.196-1.494-2.458 1.581zm-267.804 3.276c2.081 1.608 3.532 3.172 3.225 3.474-.952.939-10.038 4.83-10.048 4.303-.02-1.133 2.4-10.702 2.706-10.702.184 0 2.036 1.316 4.117 2.925zm20.262 5.344l1.269 6.991.92 5.056-2.69-.037c-3.478-.048-5.878 1.571-6.892 4.651-1.016 3.084.422 6.559 3.733 9.02 3.075 2.285 12.147 7.569 12.997 7.569.384 0 3.45-4.829 6.814-10.732l6.401-11.229c.295-.516-3.396-2.669-4.576-2.669-.369 0-1.651 1.742-2.85 3.87-1.199 2.129-2.352 3.871-2.56 3.871-.209 0-1.287-.47-2.394-1.044-2.095-1.085-2.207-1.386-3.561-9.521-.712-4.279-.944-4.688-3.493-6.157-3.446-1.988-3.543-1.977-3.118.361zm247.025 12.315c.189 1.838.09 3.342-.221 3.342-.853 0-9.097-5.023-9.086-5.536.006-.245 1.823-1.625 4.038-3.067l4.03-2.622.447 2.27c.245 1.248.602 3.774.792 5.613zm-37.059.829c-8.502 4.035-11.893 7.063-12.693 11.333-1.668 8.91 5.38 17.371 13.537 16.251 1.759-.242 6.465-1.9 10.459-3.687l7.262-3.247-.941-2.207c-1.626-3.816-9.67-21.906-9.787-22.011-.061-.054-3.588 1.551-7.837 3.568zm-203.467 5.039c2.007 1.002 3.649 2.152 3.649 2.556 0 .565-2.068 4.457-3.217 6.053-.335.466-4.926-2.21-6.791-3.958-2.182-2.046-2.445-3.747-.828-5.368 1.532-1.534 2.965-1.391 7.187.717zm211.401 6.094l3.545 7.917-3.984 1.933c-6.479 3.144-10.434 2.354-13.263-2.65-2.032-3.596-2.063-7.307-.082-9.831 1.408-1.793 7.618-5.263 9.449-5.278.435-.004 2.385 3.556 4.335 7.909zm-185.496 2.463c-4.295 10.72-3.983 10.46-9.822 8.193-2.943-1.142-3.453-1.176-4.038-.264-.367.574-.588 1.502-.491 2.062.214 1.228 22.257 10.23 23.02 9.401.288-.312.714-1.204.947-1.981.361-1.203-.203-1.657-3.784-3.048-2.314-.9-4.208-1.931-4.208-2.293 0-.362 1.76-4.959 3.909-10.217 2.15-5.257 3.81-9.643 3.688-9.745-.832-.696-3.465-1.783-4.318-1.783-.663 0-2.399 3.425-4.903 9.675zm147.361-2.537c-14.048 4.037-14.398 4.168-14.387 5.382.026 2.912.854 2.996 8.448.853 4.039-1.14 7.55-2.083 7.802-2.094.565-.025 2 3.982 2 5.582 0 .884-1.548 1.57-6.321 2.803-5.75 1.486-6.321 1.786-6.321 3.321 0 .928.431 1.854.958 2.056.527.203 3.71-.408 7.073-1.356 4.255-1.201 6.188-1.48 6.355-.919.131.444.561 1.821.955 3.058l.715 2.252-3.639 1.05a869.281 869.281 0 01-7.914 2.23c-3.9 1.077-4.248 1.33-3.955 2.867.177.927.557 1.831.843 2.008.505.314 20.274-4.927 20.881-5.535.166-.167-1.228-5.793-3.097-12.502-2.348-8.422-3.722-12.241-4.44-12.334-.572-.074-3.252.501-5.956 1.278zm-38.594 8.287c-.393.637 2.204 25.404 2.718 25.919.583.585 5.324-.742 5.32-1.488-.003-.441-.633-6.026-1.401-12.412-.767-6.386-1.397-11.848-1.4-12.139-.006-.761-4.761-.652-5.237.12zm-36.457 4.381c-.248 2.379-.451 8.396-.451 13.371v9.044h5.619v-9.585c0-7.785.171-9.444.913-8.828.501.418 3.898 4.731 7.548 9.586 5.9 7.849 6.869 8.829 8.744 8.837 1.16.005 2.82.201 3.69.434l1.58.424v-26.904h-5.58l-.195 9.575-.195 9.575-6.998-9.298c-6.946-9.228-8.488-10.556-12.263-10.556-1.885 0-1.978.168-2.412 4.325z" fill="#fff"/><circle cx="150" cy="30" r="3" fill="#fff"/><circle cx="412" cy="89" r="3" fill="#fff"/><circle cx="194" cy="466" r="3" fill="#fff"/><circle cx="437" cy="355" r="3" fill="#fff"/><path d="M296.986 219L321 243m0 0l-24.014 24M321 243H166" stroke="#fff"/></svg>