<svg width="144" height="121" fill="none" xmlns="http://www.w3.org/2000/svg"><path clip-rule="evenodd" d="M32.075 4.096C41.435 2.032 49.791 1 57.145 1H86.87c7.422 0 15.866 1.051 25.331 3.154a19.3 19.3 0 012.089.589L143 14.6l-6.583 34-19.824-6.8V120H27.421V41.8L7.618 48.6 1 15.45 29.496 4.856a19.38 19.38 0 012.58-.76zm61.317-2.845C92.432 12.543 83.225 21.4 72.007 21.4c-11.217 0-20.425-8.857-21.385-20.15h42.77zM50.752 57.1c5.59 0 10.122-4.567 10.122-10.2 0-5.633-4.531-10.2-10.121-10.2-5.59 0-10.121 4.567-10.121 10.2 0 5.633 4.531 10.2 10.12 10.2zm42.51 0c5.589 0 10.12-4.567 10.12-10.2 0-5.633-4.531-10.2-10.12-10.2-5.59 0-10.122 4.567-10.122 10.2 0 5.633 4.532 10.2 10.121 10.2zm-14.17 0c5.59 0 10.12-4.567 10.12-10.2 0-5.633-4.53-10.2-10.12-10.2-5.59 0-10.121 4.567-10.121 10.2 0 5.633 4.531 10.2 10.12 10.2zm-14.17 0c5.59 0 10.121-4.567 10.121-10.2 0-5.633-4.53-10.2-10.12-10.2-5.59 0-10.122 4.567-10.122 10.2 0 5.633 4.532 10.2 10.121 10.2z" stroke="#F50537"/></svg>