<svg width="102" height="102" fill="none" xmlns="http://www.w3.org/2000/svg"><path clip-rule="evenodd" d="M51 101c27.614 0 50-22.386 50-50S78.614 1 51 1 1 23.386 1 51s22.386 50 50 50zm0-7.5a42.33 42.33 0 0027.463-10.064C87.662 75.64 93.5 64.002 93.5 51 93.5 27.528 74.472 8.5 51 8.5S8.5 27.528 8.5 51c0 13.03 5.864 24.69 15.096 32.486A42.33 42.33 0 0051 93.5zm16.442-31.058L83.5 78.5 67.442 62.442zm-4.957 7.543L77.25 84.75 62.485 69.985zm-22.957-.013L24.75 84.75l14.778-14.778zm-4.924-7.566L18.5 78.5l16.104-16.094zM33.5 51h-25 25zm60 0h-25 25zM10.386 38.5H37.25 10.386zm81.245 0H64.75h26.88zM51 73.7c11.046 0 17.5-7.5 17.5-18.75 0-6.25 0-13.75-5-17-4.006-2.603-21.003-2.597-25 0-5 3.25-5 10.75-5 17C33.5 66.2 39.954 73.7 51 73.7z" stroke="#000"/></svg>